# xmcd CD database file
# Copyright (C) 1997 Ti Kan
# 
# Track frame offsets:
#     150
#     14117
#     25640
#     42202
#     51080
#     63652
#     75620
#     87272
#     100700
#     111147
#     125845
# 
# Disc length: 1845 seconds
# 
# Revision: 1
# Processed by: cddbd v1.4b41PL1 Copyright (c) Steve Scherf et al.
# Submitted via: DiscPlay 4.0.4
# 
DISCID=8c07330b
DTITLE=Glen Campbell - Wichita Lineman
DYEAR=1900
DGENRE=
TTITLE0=Wichita Lineman
TTITLE1=The Dock of the Bay
TTITLE2=If You Go Away
TTITLE3=Ann
TTITLE4=Words
TTITLE5=Fate of Man
TTITLE6=Dreams of the Everyday Housewife
TTITLE7=The Straight Life
TTITLE8=Reason to Believe
TTITLE9=You Better Sit Down Kids
TTITLE10=That's Not Home
EXTD=
EXTT0=
EXTT1=
EXTT2=
EXTT3=
EXTT4=
EXTT5=
EXTT6=
EXTT7=
EXTT8=
EXTT9=
EXTT10=
PLAYORDER=
